
<svg width="60" height="60" viewBox="0 0 60 60" fill="none" xmlns="http://www.w3.org/2000/svg">
<circle cx="30" cy="30" r="29.5" stroke="white"/>
<path d="M14.6836 26.6953L15.3281 25.5234C16.6484 26.25 17.9297 26.6133 19.1719 26.6133C20 26.6133 20.7539 26.4648 21.4336 26.168C22.1211 25.8633 22.6602 25.4531 23.0508 24.9375C23.4492 24.4141 23.6484 23.8477 23.6484 23.2383C23.6484 22.6367 23.4688 22.1016 23.1094 21.6328C22.75 21.1641 22.1016 20.6211 21.1641 20.0039C20.25 19.3945 19.6914 19.0195 19.4883 18.8789C19.293 18.7383 19.0352 18.5391 18.7148 18.2812C18.1445 17.7812 17.8594 17.1914 17.8594 16.5117C17.8594 15.2852 18.6562 14.1055 20.25 12.9727C20.6953 12.6523 21.2031 12.3633 21.7734 12.1055C22.3516 11.8477 22.918 11.6523 23.4727 11.5195C24.0273 11.3867 24.5469 11.3203 25.0312 11.3203C25.7422 11.3203 26.3008 11.4531 26.707 11.7188C27.1133 11.9844 27.3164 12.3555 27.3164 12.832C27.3164 13.418 27.0703 14.0469 26.5781 14.7188C26.0859 15.3828 25.4141 15.9961 24.5625 16.5586L23.625 16.0312C24.2031 15.6406 24.6914 15.25 25.0898 14.8594C25.4883 14.4688 25.7969 14.0898 26.0156 13.7227C26.2344 13.3477 26.3438 13.0078 26.3438 12.7031C26.3438 12.4922 26.2852 12.3125 26.168 12.1641C26.0508 12.0156 25.8828 11.9023 25.6641 11.8242C25.4453 11.7461 25.1719 11.707 24.8438 11.707C24.2344 11.707 23.5781 11.8281 22.875 12.0703C22.1797 12.3047 21.5234 12.6172 20.9062 13.0078C19.5312 13.875 18.8438 14.8398 18.8438 15.9023C18.8438 16.1992 18.9258 16.4805 19.0898 16.7461C19.2539 17.0039 19.5391 17.2969 19.9453 17.625C20.3594 17.9531 20.9609 18.375 21.75 18.8906C22.3359 19.2734 22.7773 19.5859 23.0742 19.8281C23.3789 20.0703 23.6289 20.3242 23.8242 20.5898C24.2617 21.1445 24.4805 21.7656 24.4805 22.4531C24.4805 22.9844 24.3398 23.5234 24.0586 24.0703C23.7852 24.6172 23.3945 25.1289 22.8867 25.6055C21.6992 26.7227 20.0508 27.2812 17.9414 27.2812C16.5664 27.2812 15.4805 27.0859 14.6836 26.6953Z" fill="white"/>
<path d="M44.6289 48H43.5039L45.9766 36.1758L46.0586 35.7656C46.1133 35.4766 46.1406 35.2773 46.1406 35.168C46.1406 35.0195 46.1016 34.8984 46.0234 34.8047C45.9453 34.7031 45.8359 34.6523 45.6953 34.6523C45.4766 34.6523 45.2305 34.7852 44.957 35.0508C44.6836 35.3164 44.3398 35.7617 43.9258 36.3867C43.2852 37.3398 42.5859 38.6641 41.8281 40.3594C41.2344 41.6953 40.7266 42.9961 40.3047 44.2617C39.8906 45.5195 39.5508 46.7656 39.2852 48H38.3125L41.0312 35.2734C41.1172 34.875 41.1602 34.5625 41.1602 34.3359C41.1602 34.2344 41.1406 34.1367 41.1016 34.043C41.0625 33.9492 41.0078 33.8789 40.9375 33.832C40.875 33.7852 40.8008 33.7617 40.7148 33.7617C40.3477 33.7617 39.8984 34.1211 39.3672 34.8398C38.8359 35.5508 38.207 36.6602 37.4805 38.168C37.1367 38.8477 36.8047 39.5586 36.4844 40.3008C36.1641 41.043 35.8789 41.7344 35.6289 42.375C35.3789 43.0156 35.0977 43.7969 34.7852 44.7188C34.332 46.0625 34.0039 47.1562 33.8008 48H32.8164L32.8516 47.8359L33.3555 45.832C33.5352 45.0664 33.6914 44.3867 33.8242 43.793C34.4414 40.9961 34.8945 38.7109 35.1836 36.9375C35.4258 35.5469 35.5469 34.543 35.5469 33.9258C35.5469 33.4727 35.4766 33.125 35.3359 32.8828C35.2031 32.6328 35.0156 32.5078 34.7734 32.5078C34.1797 32.5078 33.6523 33.2969 33.1914 34.875C32.9023 35.8672 32.6797 36.9375 32.5234 38.0859L31.6445 37.5117C31.7773 36.5039 31.9961 35.5938 32.3008 34.7812C32.6133 33.9688 32.9805 33.3281 33.4023 32.8594C33.832 32.3828 34.2656 32.1445 34.7031 32.1445C35.2031 32.1445 35.5938 32.4102 35.875 32.9414C36.1641 33.4727 36.3086 34.1992 36.3086 35.1211C36.3086 35.8945 36.2383 36.7734 36.0977 37.7578C36.0586 38.0469 35.9336 38.7812 35.7227 39.9609L35.2539 42.5156L35.3242 42.293C35.8867 40.7617 36.7031 38.957 37.7734 36.8789C38.4453 35.5898 39.0664 34.6172 39.6367 33.9609C40.2148 33.2969 40.7383 32.9648 41.207 32.9648C41.5039 32.9648 41.75 33.082 41.9453 33.3164C42.1406 33.543 42.2383 33.8359 42.2383 34.1953C42.2383 34.5625 42.1641 35.0938 42.0156 35.7891L40.6562 42.2812C40.7578 41.9922 40.9922 41.4375 41.3594 40.6172C42.4297 38.2422 43.3438 36.5312 44.1016 35.4844C44.8594 34.4297 45.5586 33.9023 46.1992 33.9023C46.5195 33.9023 46.7734 34.0156 46.9609 34.2422C47.1562 34.4609 47.2539 34.7539 47.2539 35.1211C47.2539 35.418 47.1875 35.8672 47.0547 36.4688L44.6289 48Z" fill="white"/>
<line x1="14.6464" y1="43.6464" x2="42.9307" y2="15.3622" stroke="white"/>
</svg>
