<svg width="38" height="38" viewBox="0 0 38 38" fill="none" xmlns="http://www.w3.org/2000/svg">
<path d="M28.558 2.05029C27.9434 2.05029 27.3287 2.27295 26.8788 2.7229L24.3623 5.2417C23.8984 4.77783 23.1447 4.77783 22.6831 5.2417L19.3247 8.6001C19.0997 8.82507 18.9745 9.12427 18.9745 9.44202C18.9745 9.75745 19.0997 10.0566 19.3247 10.2793L19.3525 10.3094L3.2749 26.3616C2.97571 26.6608 2.7948 27.0574 2.76001 27.4795L2.35876 32.4637L1.94128 35.3861C1.91345 35.5717 1.97607 35.7572 2.1106 35.8917C2.22192 36.0031 2.37268 36.0634 2.52808 36.0634C2.55823 36.0634 2.58606 36.0634 2.61389 36.0587L5.53393 35.6436L10.5483 35.2725C10.9751 35.2423 11.374 35.0591 11.6755 34.7576L27.7532 18.7031C27.9735 18.9095 28.2565 19.0255 28.5603 19.0255C28.8781 19.0255 29.1749 18.9026 29.3999 18.6776L32.7583 15.3192C33.2222 14.8553 33.2222 14.1039 32.7583 13.64L35.2794 11.1212C35.7271 10.6713 35.9729 10.0752 35.9729 9.4397C35.9729 8.80652 35.7271 8.20813 35.2771 7.7605L30.2395 2.7229C29.7919 2.27295 29.1749 2.05029 28.558 2.05029ZM28.558 3.2262C28.8665 3.2262 29.1749 3.33752 29.3999 3.5625L34.4375 8.6001C34.6625 8.82507 34.7854 9.12195 34.7854 9.4397C34.7854 9.75745 34.6625 10.0566 34.4375 10.2793L31.9187 12.8004L25.1996 6.0813L27.7207 3.5625C27.9434 3.33752 28.2518 3.2262 28.558 3.2262ZM23.5204 6.0813L23.9425 6.5011L31.4989 14.0575L31.9187 14.4796L31.0791 15.3169C30.8472 15.085 30.4714 15.085 30.2395 15.3169L29.3999 16.1588C29.168 16.3907 29.168 16.7665 29.3999 16.9984L28.5603 17.838L20.162 9.4397L21.0016 8.6001C21.1176 8.71606 21.2683 8.77405 21.4214 8.77405C21.5745 8.77405 21.7252 8.71606 21.8412 8.6001L22.6831 7.7605C22.915 7.52856 22.915 7.15283 22.6831 6.9209L23.5204 6.0813ZM24.3623 8.84595C24.2092 8.84595 24.0585 8.90393 23.9425 9.0199L23.1006 9.8595C22.8687 10.0914 22.8687 10.4672 23.1006 10.6991C23.2166 10.8151 23.3696 10.873 23.5204 10.873C23.6735 10.873 23.8265 10.8151 23.9425 10.6991L24.7798 9.8595C25.014 9.62756 25.014 9.25183 24.7798 9.0199C24.6638 8.90393 24.5131 8.84595 24.3623 8.84595ZM26.459 10.9473C26.3082 10.9473 26.1575 11.0029 26.0415 11.1212L25.1996 11.9585C24.9676 12.1927 24.9676 12.5662 25.1996 12.8004C25.3156 12.9141 25.4686 12.972 25.6217 12.972C25.7725 12.972 25.9255 12.9141 26.0415 12.8004L26.8788 11.9585C27.113 11.7266 27.113 11.3531 26.8788 11.1212C26.7628 11.0029 26.6121 10.9473 26.459 10.9473ZM20.1945 11.149L26.9113 17.8682L11.2975 33.4564L10.7316 30.6268L20.5818 20.7766C20.8137 20.5447 20.8137 20.1689 20.5818 19.937C20.3499 19.7051 19.9764 19.7051 19.7422 19.937L9.88965 29.7896L8.49109 29.5089L8.21045 28.108L16.3838 19.937C16.618 19.7028 16.618 19.3293 16.3838 19.0951C16.1519 18.8632 15.7784 18.8632 15.5465 19.0951L7.37317 27.2684L4.60388 26.7164L20.1945 11.149ZM28.5603 13.0439C28.4072 13.0439 28.2565 13.1019 28.1405 13.2202L27.3009 14.0575C27.069 14.2917 27.069 14.6652 27.3009 14.8994C27.4169 15.0131 27.5676 15.0734 27.7207 15.0734C27.8738 15.0734 28.0245 15.0131 28.1405 14.8994L28.9801 14.0575C29.212 13.8256 29.212 13.4521 28.9801 13.2202C28.8641 13.1019 28.7134 13.0439 28.5603 13.0439ZM19.3247 15.5651C19.1716 15.5651 19.0209 15.623 18.9049 15.7367L17.2257 17.4159C16.9915 17.6501 16.9915 18.0236 17.2257 18.2578C17.3394 18.3715 17.4924 18.4318 17.6455 18.4318C17.7963 18.4318 17.9493 18.3715 18.063 18.2578L19.7422 16.5786C19.9764 16.3444 19.9764 15.9709 19.7422 15.7367C19.6262 15.6207 19.4755 15.5627 19.3247 15.5651ZM3.92432 27.7903L7.06238 28.4165L7.40332 30.1305C7.45203 30.3647 7.63525 30.548 7.86951 30.5944L9.58118 30.9376L10.2144 34.1058L5.69629 34.4375L3.5625 32.306L3.92432 27.7903Z" fill="white"/>
</svg>
