<svg width="38" height="38" viewBox="0 0 38 38" fill="none" xmlns="http://www.w3.org/2000/svg">
<path d="M15.6349 4.94C14.5573 4.94 13.68 5.85289 13.68 6.97508V7.6H11.1224C7.89837 7.6 6.46001 8.97899 6.46001 12.0709V14.06C6.46001 14.1609 6.50008 14.2574 6.57133 14.3287L8.36001 16.1173V17.1074C7.49462 17.2841 6.84001 18.0515 6.84001 18.9688V20.4888C6.84001 21.4062 7.49462 22.1736 8.36001 22.3488V28.6173C8.36001 31.2743 10.309 33.06 13.2109 33.06H24.7134C27.6598 33.06 29.64 31.2743 29.64 28.6173V22.3488C30.5054 22.1721 31.16 21.4062 31.16 20.4888V18.9688C31.16 18.0515 30.5054 17.2841 29.64 17.1074V16.0877L31.4272 14.3302C31.4984 14.2589 31.54 14.1624 31.54 14.06V12.0709C31.54 8.97899 30.1016 7.6 26.8761 7.6H24.32V6.97508C24.32 5.85289 23.4427 4.94 22.3651 4.94H15.6349ZM15.6349 5.7H22.3651C23.0241 5.7 23.56 6.27149 23.56 6.97508V7.6H14.44V6.97508C14.44 6.27149 14.9759 5.7 15.6349 5.7ZM11.1224 8.36H26.8776C29.545 8.36 30.6939 9.35602 30.7756 11.78H7.22594C7.23485 11.5084 7.2586 11.256 7.29571 11.02H27.55C27.6554 11.02 27.74 10.9354 27.74 10.83C27.74 10.7246 27.6554 10.64 27.55 10.64H7.36993C7.75735 9.04133 8.9211 8.36 11.1224 8.36ZM28.69 10.64C28.5846 10.64 28.5 10.7246 28.5 10.83C28.5 10.9354 28.5846 11.02 28.69 11.02H29.83C29.9354 11.02 30.02 10.9354 30.02 10.83C30.02 10.7246 29.9354 10.64 29.83 10.64H28.69ZM7.22001 12.54H30.78V13.3H7.22001V12.54ZM7.22001 13.68H30.78V13.8997L28.9928 15.6572C28.9216 15.7284 28.88 15.8264 28.88 15.9288V28.6173C28.88 29.5257 28.6262 30.2338 28.2209 30.78H9.76868C9.36938 30.2338 9.12001 29.5257 9.12001 28.6173V15.96C9.12001 15.8591 9.07993 15.7626 9.00868 15.6913L7.22001 13.9027V13.68ZM12.16 15.1688C11.5321 15.1688 11.02 15.6809 11.02 16.3088V22.99C11.02 23.0954 11.1046 23.18 11.21 23.18C11.3154 23.18 11.4 23.0954 11.4 22.99V16.3088C11.4 15.8902 11.7414 15.5488 12.16 15.5488C12.5786 15.5488 12.92 15.8902 12.92 16.3088V28.0888C12.92 28.5074 12.5786 28.8488 12.16 28.8488C11.7414 28.8488 11.4 28.5074 11.4 28.0888V26.79C11.4 26.6846 11.3154 26.6 11.21 26.6C11.1046 26.6 11.02 26.6846 11.02 26.79V28.0888C11.02 28.7167 11.5321 29.2288 12.16 29.2288C12.7879 29.2288 13.3 28.7167 13.3 28.0888V16.3088C13.3 15.6809 12.7879 15.1688 12.16 15.1688ZM16.72 15.2C16.0921 15.2 15.58 15.7121 15.58 16.34V28.12C15.58 28.7479 16.0921 29.26 16.72 29.26C17.3479 29.26 17.86 28.7479 17.86 28.12V16.34C17.86 15.7121 17.3479 15.2 16.72 15.2ZM21.28 15.2C20.6521 15.2 20.14 15.7121 20.14 16.34V28.12C20.14 28.7479 20.6521 29.26 21.28 29.26C21.9079 29.26 22.42 28.7479 22.42 28.12V16.34C22.42 15.7121 21.9079 15.2 21.28 15.2ZM25.84 15.2C25.2121 15.2 24.7 15.7121 24.7 16.34V28.12C24.7 28.7479 25.2121 29.26 25.84 29.26C26.4679 29.26 26.98 28.7479 26.98 28.12V16.34C26.98 15.7121 26.4679 15.2 25.84 15.2ZM16.72 15.58C17.1386 15.58 17.48 15.9214 17.48 16.34V28.12C17.48 28.5386 17.1386 28.88 16.72 28.88C16.3014 28.88 15.96 28.5386 15.96 28.12V16.34C15.96 15.9214 16.3014 15.58 16.72 15.58ZM21.28 15.58C21.6986 15.58 22.04 15.9214 22.04 16.34V28.12C22.04 28.5386 21.6986 28.88 21.28 28.88C20.8614 28.88 20.52 28.5386 20.52 28.12V16.34C20.52 15.9214 20.8614 15.58 21.28 15.58ZM25.84 15.58C26.2586 15.58 26.6 15.9214 26.6 16.34V28.12C26.6 28.5386 26.2586 28.88 25.84 28.88C25.4214 28.88 25.08 28.5386 25.08 28.12V16.34C25.08 15.9214 25.4214 15.58 25.84 15.58ZM8.36001 17.8927V21.5635C7.91766 21.4062 7.60001 20.9846 7.60001 20.4888V18.9688C7.60001 18.4731 7.91766 18.05 8.36001 17.8941V17.8927ZM29.64 17.8927C30.0823 18.05 30.4 18.4731 30.4 18.9688V20.4888C30.4 20.9831 30.0823 21.4062 29.64 21.562V17.8927ZM11.21 23.56C11.1046 23.56 11.02 23.6446 11.02 23.75V24.89C11.02 24.9954 11.1046 25.08 11.21 25.08C11.3154 25.08 11.4 24.9954 11.4 24.89V23.75C11.4 23.6446 11.3154 23.56 11.21 23.56ZM10.0938 31.16H27.8884C27.0572 31.969 25.8326 32.3 24.7134 32.3H13.2109C12.1125 32.3 10.9102 31.969 10.0938 31.16Z" fill="white"/>
</svg>
